<svg width="32" height="33" viewBox="0 0 32 33" fill="none" xmlns="http://www.w3.org/2000/svg">
<rect width="32" height="32.4" fill="white"/>
<path fill-rule="evenodd" clip-rule="evenodd" d="M16 31C24.2852 31 31 24.2852 31 16C31 7.71484 24.2852 1 16 1C7.71484 1 1 7.71484 1 16C1 24.2852 7.71484 31 16 31Z" fill="#319D74"/>
<path fill-rule="evenodd" clip-rule="evenodd" d="M24.2309 14.0237L15.805 22.6312C15.1863 23.2633 14.1857 23.2633 13.5735 22.6312L9.36057 18.3274C8.74179 17.6953 8.74179 16.6732 9.36057 16.0478C9.97934 15.4224 10.9799 15.4157 11.5921 16.0478L14.686 19.2084L21.9928 11.7373C22.6116 11.1052 23.6121 11.1052 24.2243 11.7373C24.8365 12.3694 24.8431 13.3915 24.2243 14.0169L24.2309 14.0237Z" fill="white"/>
</svg>
